# xmcd
#
# Track frame offsets: 
#        150
#        18528
#        33600
#        47999
#        65183
#        77130
#        93928
#        102372
#
# Disc length: 1563 seconds
#
# Revision: 0
# Processed by: cddbd v1.5.2PL0 Copyright (c) Steve Scherf et al.
# Submitted via: ExactAudioCopy v0.99pb4
#
DISCID=6b061908
DTITLE=Bladehorn - Bladehorn
DYEAR=2009
DGENRE=Gospel
TTITLE0=Cold Jordon
TTITLE1=I am a Pilgrim
TTITLE2=Prodigal son
TTITLE3=Down in the Valley
TTITLE4=The Old Account
TTITLE5=Long Black Veil
TTITLE6=Standing on Jesus
TTITLE7=Old Time Christian
EXTD=
EXTT0=
EXTT1=
EXTT2=
EXTT3=
EXTT4=
EXTT5=
EXTT6=
EXTT7=
PLAYORDER=
